<svg xmlns="http://www.w3.org/2000/svg"><symbol id="instagram-logo" viewBox="0 0 150 150"><path d="M108.6 0H41.4A41.5 41.5 0 0 0 0 41.4v67.2A41.5 41.5 0 0 0 41.4 150h67.2a41.5 41.5 0 0 0 41.4-41.4V41.4A41.5 41.5 0 0 0 108.6 0zm28.1 108.6a28.1 28.1 0 0 1-28.1 28.1H41.4a28.1 28.1 0 0 1-28.1-28.1V41.4a28.1 28.1 0 0 1 28.1-28.1h67.2a28.1 28.1 0 0 1 28.1 28.1v67.2z"/><path d="M75 36.4A38.7 38.7 0 1 0 113.7 75 38.7 38.7 0 0 0 75 36.4zm0 63.9A25.3 25.3 0 1 1 100.3 75 25.3 25.3 0 0 1 75 100.3zm40.3-75.2a9.8 9.8 0 0 0-6.9 2.8 9.6 9.6 0 0 0-2.9 6.9 9.9 9.9 0 0 0 9.8 9.8 10 10 0 0 0 6.9-2.9 9.8 9.8 0 0 0 2.8-6.9 9.6 9.6 0 0 0-9.7-9.7z"/></symbol><symbol id="envelope" viewBox="0 0 512 512"><path d="M10.688 95.156C80.958 154.667 204.26 259.365 240.5 292.01c4.865 4.406 10.083 6.646 15.5 6.646 5.406 0 10.615-2.219 15.469-6.604 36.271-32.677 159.573-137.385 229.844-196.896 4.375-3.698 5.042-10.198 1.5-14.719C494.625 69.99 482.417 64 469.333 64H42.667c-13.083 0-25.292 5.99-33.479 16.438-3.542 4.52-2.875 11.02 1.5 14.718z"/><path d="M505.813 127.406a10.618 10.618 0 0 0-11.375 1.542C416.51 195.01 317.052 279.688 285.76 307.885c-17.563 15.854-41.938 15.854-59.542-.021-33.354-30.052-145.042-125-208.656-178.917a10.674 10.674 0 0 0-11.375-1.542A10.674 10.674 0 0 0 0 137.083v268.25C0 428.865 19.135 448 42.667 448h426.667C492.865 448 512 428.865 512 405.333v-268.25a10.66 10.66 0 0 0-6.187-9.677z"/></symbol><symbol id="linkedin-letters" viewBox="0 0 150 143"><path d="M2.3 46.5h32.1V143H2.3zm137.6 8.8c-6.8-7.4-15.7-11.1-26.8-11.1a39.4 39.4 0 0 0-11.2 1.5 23.8 23.8 0 0 0-8.4 4.3 40.6 40.6 0 0 0-5.5 5 36.8 36.8 0 0 0-3.8 5.2V46.5H52.1v4.6c.1 3.1.1 12.8.1 28.9s0 37.1-.2 63h32.2V89.1a24.5 24.5 0 0 1 1-7.9 21.4 21.4 0 0 1 6.2-8.3 16.2 16.2 0 0 1 10.3-3.4c5.6 0 9.7 2 12.3 5.8s4 9.2 4 16V143h32V87.6c0-14.2-3.4-25-10.1-32.3zM18.5 0C13.1 0 8.8 1.6 5.4 4.7a15.9 15.9 0 0 0-5 12 15.5 15.5 0 0 0 4.9 11.8c3.2 3.2 7.5 4.8 12.8 4.8h.2q8.3 0 13.2-4.8a14.9 14.9 0 0 0 4.9-11.8 16.2 16.2 0 0 0-4.9-12C28.2 1.6 23.9 0 18.5 0z"/></symbol><symbol id="vimeo" viewBox="0 0 150 129.4"><path fill-rule="evenodd" d="M149.4 24.1c1.1-6.3 1.1-12.8-2.8-17.6-5.4-6.9-17-7.1-24.8-5.9S93.6 11.1 86.2 34.1c13.1-1 20 .9 18.7 15.3-.5 6-3.6 12.7-7 19S86.7 90 77 79.7s-8-27.1-10-38.9c-1.1-6.7-2.3-15-4.5-21.8S56.3 6 51.1 4.5s-12.7.9-16.8 3.3c-13 7.7-23 18.6-34.3 27.7 1.8 3.9 2.8 6.4 6.1 6.9 7.8 1.2 15.2-7.2 20.4 1.5 3.2 5.4 4.1 11.2 6.2 17 2.6 7.6 4.7 16 6.9 24.8 3.8 14.9 8.3 37.2 21.2 42.7 6.6 2.8 16.5-1 21.5-3.9 13.6-8.1 24.2-19.7 33.2-31.6 20.7-28 32.1-59.8 33.9-68.8z"/></symbol></svg>